<svg xmlns="http://www.w3.org/2000/svg" version="1.1" xmlns:xlink="http://www.w3.org/1999/xlink" xmlns:svgjs="http://svgjs.dev/svgjs" width="1500" height="1500" viewBox="0 0 1500 1500"><rect width="1500" height="1500" fill="#000000"></rect><g transform="matrix(0.6666666666666666,0,0,0.6666666666666666,249.39393939393938,566.8949520419548)"><svg viewBox="0 0 396 145" data-background-color="#ffffff" preserveAspectRatio="xMidYMid meet" height="549" width="1500" xmlns="http://www.w3.org/2000/svg" xmlns:xlink="http://www.w3.org/1999/xlink"><g id="tight-bounds" transform="matrix(1,0,0,1,0.2400000000000091,0.04161736042776454)"><svg viewBox="0 0 395.52 144.91676527914447" height="144.91676527914447" width="395.52"><g><svg viewBox="0 0 668.9370913087466 245.09556899196824" height="144.91676527914447" width="395.52"><g transform="matrix(1,0,0,1,273.41709130874654,61.15710668725617)"><svg viewBox="0 0 395.52000000000004 122.7813556174559" height="122.7813556174559" width="395.52000000000004"><g id="textblocktransform"><svg viewBox="0 0 395.52000000000004 122.7813556174559" height="122.7813556174559" width="395.52000000000004" id="textblock"><g><svg viewBox="0 0 395.52000000000004 122.7813556174559" height="122.7813556174559" width="395.52000000000004"><g transform="matrix(1,0,0,1,0,0)"><svg width="395.52000000000004" viewBox="2 -36.04 157.75 48.98" height="122.7813556174559" data-palette-color="#1e55b3"><path d="M22.46 0.34L22.46 0.34 18.16 0.34Q16.55-1.17 14.75-3.13 12.94-5.08 11.79-6.45 10.64-7.81 8.62-10.33 6.59-12.84 5.76-13.87L5.76-13.87 6.4-0.68Q5.96 0.78 4.69 0.78L4.69 0.78Q3.81 0.78 3 0.07 2.2-0.63 2-1.66L2-1.66Q2.15-5.57 2.25-17.87 2.34-30.18 2.69-36.04L2.69-36.04 4.88-35.55Q5.03-33.11 5.22-27.08 5.42-21.04 5.52-19.04L5.52-19.04Q6.35-20.07 8.62-22.83 10.89-25.59 11.74-26.59 12.6-27.59 14.23-29.49 15.87-31.4 17.24-32.81 18.6-34.23 20.17-35.69L20.17-35.69 21.63-33.3Q19.87-30.37 8.01-16.7L8.01-16.7Q9.72-14.89 15.06-8.3 20.41-1.71 22.46 0.34ZM25.49-25.1L25.49-25.1 27.73-24.61Q28.12-20.61 28.42-12.04 28.71-3.47 28.81-1.42L28.81-1.42Q28.37 0.1 27.1 0.1L27.1 0.1Q26.22 0.1 25.41-0.61 24.61-1.32 24.41-2.34L24.41-2.34Q24.51-4.35 24.8-12.77 25.1-21.19 25.49-25.1ZM26.17-33.84L26.17-33.84Q27.49-33.84 28.37-32.69 29.25-31.54 29.25-30.08L29.25-30.08Q29.25-29 28.73-28.34 28.22-27.69 27.34-27.69L27.34-27.69Q25.97-27.69 25.19-28.81 24.41-29.93 24.41-31.45L24.41-31.45Q24.41-32.52 24.88-33.18 25.34-33.84 26.17-33.84ZM36.57-19.53L36.57-19.53 36.76-0.2Q36.03 0.2 35 0.2L35 0.2Q34.22 0.2 33.25-0.05L33.25-0.05Q33.39-3.13 33.44-12.16 33.49-21.19 33.83-25.54L33.83-25.54 36.03-25.05 36.18-22.31Q38.76-25.05 42.13-25.05L42.13-25.05Q43.84-25.05 44.87-24.8 45.89-24.56 46.85-23.61 47.8-22.66 48.29-21.09 48.77-19.53 49.16-16.63 49.56-13.72 49.73-9.84 49.9-5.96 49.95-0.05L49.95-0.05Q49.65 0.05 48.82 0.05L48.82 0.05Q47.07 0.05 46.09-0.39L46.09-0.39Q45.89-1.17 45.89-2.98L45.89-2.98Q45.89-3.91 45.97-6.47 46.04-9.03 46.04-10.45L46.04-10.45Q46.04-12.79 45.87-14.55 45.7-16.31 45.23-18.02 44.77-19.73 43.82-20.65 42.87-21.58 41.45-21.58L41.45-21.58Q39.84-21.58 38.94-21.34 38.03-21.09 37.67-20.75 37.3-20.41 36.57-19.53ZM68.79-25.2L68.79-25.2 70.99-25.68Q70.99-24.22 71.04-23.39L71.04-23.39Q71.33-12.7 71.33-9.47L71.33-9.47Q71.33-8.35 71.38-5.96 71.43-3.56 71.43-2.34L71.43-2.34Q71.43 0.34 71.26 2.29 71.09 4.25 70.5 6.37 69.91 8.5 68.91 9.84 67.91 11.18 66.08 12.06 64.25 12.94 61.76 12.94L61.76 12.94Q59.61 12.94 54.19 12.3L54.19 12.3Q54.14 11.77 54.02 11.13 53.9 10.5 53.9 10.16L53.9 10.16Q53.9 9.42 54.05 8.98L54.05 8.98Q54.44 9.03 57.1 9.38 59.76 9.72 61.03 9.72L61.03 9.72Q64.4 9.72 66.2 7.67 68.01 5.62 68.06 0L68.06 0Q65.67 1.37 63.03 1.37L63.03 1.37Q60.83 1.37 59.17 0.46 57.51-0.44 56.54-1.83 55.56-3.22 54.95-5.2 54.34-7.18 54.12-9.03 53.9-10.89 53.9-12.99L53.9-12.99Q53.9-18.26 56.22-21.83 58.54-25.39 63.27-25.39L63.27-25.39Q66.06-25.39 68.74-23.68L68.74-23.68Q68.79-24.17 68.79-25.2ZM68.21-4.74L68.21-4.74 68.35-20.51Q68.06-21.39 66.52-21.9 64.98-22.41 63.13-22.41L63.13-22.41Q60.49-22.41 59.03-20 57.56-17.58 57.56-14.11L57.56-14.11Q57.56-12.3 57.76-10.57 57.95-8.84 58.54-6.76 59.12-4.69 60.44-3.42 61.76-2.15 63.71-2.15L63.71-2.15Q65.18-2.15 66.4-2.86 67.62-3.56 68.21-4.74ZM97.79-32.23L97.79-32.23 95.84-29.98Q92.03-32.81 88.32-32.81L88.32-32.81Q85.88-32.81 84.12-31.64 82.36-30.47 81.46-28.81 80.56-27.15 80.04-24.61 79.53-22.07 79.41-20.21 79.29-18.36 79.29-15.87L79.29-15.87Q79.29-13.43 80.19-10.33 81.09-7.23 83.24-4.54 85.39-1.86 88.22-1.86L88.22-1.86Q91.3-1.86 97.65-5.08L97.65-5.08Q98.28-4.15 99.31-2L99.31-2Q93.15 2.25 88.32 2.25L88.32 2.25Q85.2 2.25 82.61 0.34 80.02-1.56 78.53-4.49 77.04-7.42 76.24-10.62 75.43-13.82 75.43-16.7L75.43-16.7Q75.43-19.87 75.92-22.88 76.41-25.88 77.58-28.91 78.75-31.93 81.12-33.79 83.49-35.64 86.76-35.64L86.76-35.64Q89.59-35.64 92.62-34.67 95.64-33.69 97.79-32.23ZM102.04-35.16L102.04-35.16 104.58-34.57Q104.72-32.57 104.8-28.17 104.87-23.78 104.97-22.12L104.97-22.12Q107.6-24.9 111.32-24.9L111.32-24.9Q114.64-24.9 117.05-22.56 119.47-20.21 119.47-16.31L119.47-16.31 119.47-0.24Q118.84 0.05 117.86 0.05L117.86 0.05Q116.78 0.05 115.91-0.15L115.91-0.15Q115.91-0.54 115.93-1.34 115.95-2.15 115.95-2.54L115.95-2.54Q115.95-4.44 115.81-9.11 115.66-13.77 115.66-16.89L115.66-16.89Q114.93-21.39 111.12-21.39L111.12-21.39Q109.46-21.39 107.85-20.48 106.24-19.58 105.51-18.36L105.51-18.36Q105.65-15.28 105.7-9.08 105.75-2.88 105.85-0.15L105.85-0.15Q104.68 0.05 103.84 0.05L103.84 0.05Q102.62 0.05 101.79-0.24L101.79-0.24Q101.89-2.64 101.89-7.81L101.89-7.81Q101.89-10.11 101.84-16.24 101.79-22.36 101.82-26.78 101.84-31.2 102.04-35.16ZM125.23-21.09L125.23-21.09 124.25-23.58Q125.52-24.85 127.48-25.61 129.43-26.37 131.33-26.37L131.33-26.37Q139.58-26.37 139.58-12.11L139.58-12.11Q139.58-10.16 139.36-6.35 139.15-2.54 139.15-0.63L139.15-0.63Q138.75 0.88 137.63 0.88L137.63 0.88Q136.75 0.88 136.02 0 135.29-0.88 135.29-1.95L135.29-1.95Q135.29-2.29 135.34-2.44L135.34-2.44Q132.31 0.49 128.89 0.49L128.89 0.49Q126.3 0.49 124.37-1.39 122.45-3.27 122.45-5.96L122.45-5.96Q122.45-10.5 125.99-14.16 129.53-17.82 134.02-17.82L134.02-17.82Q134.21-17.82 134.41-17.8 134.6-17.77 134.87-17.72 135.14-17.68 135.29-17.68L135.29-17.68Q134.9-23.39 130.75-23.39L130.75-23.39Q128.31-23.39 125.23-21.09ZM135.43-5.81L135.43-5.81Q135.53-9.23 135.53-10.99L135.53-10.99Q135.53-12.45 135.43-15.09L135.43-15.09 135.04-15.09Q131.58-15.04 128.72-12.5 125.86-9.96 125.86-6.35L125.86-6.35Q125.86-4.79 126.82-3.86 127.77-2.93 129.14-2.93L129.14-2.93Q131.28-2.93 135.43-5.81ZM156.87-23.63L156.87-23.63 157.4-21.44Q156.09-21.34 153.35-20.92 150.62-20.51 149.25-20.41L149.25-20.41Q149.49-18.7 149.54-15.92 149.59-13.13 149.67-11.11 149.74-9.08 150.1-7.06 150.47-5.03 151.62-3.96 152.77-2.88 154.72-2.88L154.72-2.88Q156.18-2.88 158.38-3.56L158.38-3.56Q159.31-1.76 159.75-0.93L159.75-0.93Q155.89 0.44 151.94 0.44L151.94 0.44Q150.47 0.44 149.4-0.44 148.32-1.32 147.74-2.64 147.15-3.96 146.78-5.98 146.42-8.01 146.32-9.81 146.22-11.62 146.22-13.96L146.22-13.96Q146.22-15.23 146.25-17.48 146.27-19.73 146.27-20.56L146.27-20.56Q145.78-20.51 143.98-20.48 142.17-20.46 141.88-20.46L141.88-20.46Q141.54-23.73 141.54-23.83L141.54-23.83Q141.88-23.73 142.66-23.73L142.66-23.73Q143.1-23.73 144.07-23.8 145.05-23.88 145.54-23.88L145.54-23.88Q145.73-23.88 146.05-23.85 146.37-23.83 146.47-23.83L146.47-23.83Q146.66-29.2 146.91-32.57L146.91-32.57 149.1-32.03Q149.15-30.86 149.18-29.52 149.2-28.17 149.23-26.54 149.25-24.9 149.25-24.02L149.25-24.02Q150.52-23.93 153.06-23.83 155.6-23.73 156.87-23.63Z" opacity="1" transform="matrix(1,0,0,1,0,0)" fill="#ffffff" class="wordmark-text-0" data-fill-palette-color="primary" id="text-0"></path></svg></g></svg></g></svg></g></svg></g><g><svg viewBox="0 0 244.43136 245.09556899196824" height="245.09556899196824" width="244.43136"><g><svg version="1.1" xmlns="http://www.w3.org/2000/svg" xmlns:xlink="http://www.w3.org/1999/xlink" x="0" y="0" viewBox="0 0 99.72900000000001 100" enable-background="new 0 0 99.729 100" xml:space="preserve" width="244.43136" height="245.09556899196824" class="icon-icon-0" data-fill-palette-color="accent" id="icon-0"><g fill="#ff585f" data-fill-palette-color="accent"><path fill="#ffffff" d="M85.527 64.903c3.936 0 7.125-3.192 7.125-7.125 0-3.938-3.189-7.127-7.125-7.127-3.935 0-7.129 3.189-7.129 7.127C78.398 61.711 81.59 64.903 85.527 64.903z" data-fill-palette-color="accent"></path><path fill="#ffffff" d="M91.408 66.731c-3.105 0-5.197-0.003-6.591-0.005-0.651 0.008-2.155 0.02-5.082 0.037-2.631 0-5.539 1.141-7.111 3.537l-5.314 8.193 0.117-19.066c0-0.114-0.019-0.203-0.052-0.273-0.529-1.46-5.332-1.492-5.332 0.316 0 1.723-0.439 24.715 1.492 26.691 0.33 0.337 0.582 0.686 1.142 0.757 0.784 0.103 1.681-0.006 2.533-0.231 0.02-0.002 0.052-0.013 0.078-0.019 1.261-0.347 2.403-0.957 2.927-1.584 0.044-0.048 0.113-0.094 0.146-0.139l4.421-6.598h0.971V100h17.633 6.189c0 0 0.154-1.397 0.154-3.124V74.6C99.729 69.84 96.624 66.731 91.408 66.731z" data-fill-palette-color="accent"></path><path fill="#ffffff" d="M84.817 66.727C87.161 66.697 78.414 66.718 84.817 66.727L84.817 66.727z" data-fill-palette-color="accent"></path><path fill="#ffffff" d="M67.885 41.475c0.647-0.003 1.168-0.529 1.165-1.175-0.002-0.644-0.525-1.164-1.169-1.164-0.002 0-0.003 0-0.005 0-0.19 0-19.127 1.306-20.974 20.873-0.061 0.643 0.411 1.214 1.055 1.274 0.037 0.003 0.075 0.006 0.111 0.006 0.596 0 1.105-0.454 1.163-1.061C50.886 42.696 67.765 41.483 67.885 41.475z" data-fill-palette-color="accent"></path><path fill="#ffffff" d="M61.199 35.53c0.646-0.003 1.167-0.529 1.164-1.175-0.001-0.644-0.524-1.165-1.169-1.165-0.001 0-0.003 0-0.004 0-0.191 0.001-19.127 1.306-20.974 20.875-0.061 0.643 0.411 1.213 1.055 1.274 0.037 0.003 0.075 0.006 0.111 0.006 0.596 0 1.105-0.455 1.163-1.061C44.2 36.752 61.078 35.539 61.199 35.53z" data-fill-palette-color="accent"></path><path fill="#ffffff" d="M32.522 36.035c0.852 0.225 1.747 0.333 2.531 0.232 0.561-0.073 0.812-0.419 1.143-0.757 1.932-1.976 1.491-24.969 1.491-26.691 0-1.808-4.801-1.777-5.331-0.316-0.033 0.071-0.053 0.159-0.053 0.273l0.119 19.067-5.315-8.193c-1.571-2.395-4.48-3.537-7.11-3.537-2.837-0.016-4.326-0.027-5.009-0.036-1.393 0.002-3.507 0.005-6.664 0.005C3.107 16.081 0 19.189 0 23.949v22.277c0 1.725 0.156 3.123 0.156 3.123h6.188 17.633V27.697h0.971l4.421 6.597c0.034 0.045 0.103 0.091 0.146 0.138 0.522 0.626 1.661 1.236 2.92 1.583C32.464 36.023 32.499 36.035 32.522 36.035z" data-fill-palette-color="accent"></path><path fill="#ffffff" d="M14.203 14.252c3.936 0 7.129-3.192 7.129-7.125C21.332 3.19 18.138 0 14.203 0 10.269 0 7.08 3.19 7.08 7.127 7.08 11.061 10.269 14.252 14.203 14.252z" data-fill-palette-color="accent"></path><path fill="#ffffff" d="M14.987 16.076C21.311 16.065 12.437 16.046 14.987 16.076L14.987 16.076z" data-fill-palette-color="accent"></path><path fill="#ffffff" d="M54.951 28.829c0.647-0.003 1.168-0.529 1.165-1.175-0.002-0.646-0.588-1.157-1.174-1.165-0.19 0.001-19.127 1.307-20.974 20.874-0.061 0.643 0.411 1.214 1.055 1.274 0.037 0.004 0.075 0.005 0.111 0.005 0.596 0 1.105-0.454 1.163-1.06C37.952 30.05 54.831 28.837 54.951 28.829z" data-fill-palette-color="accent"></path><path fill="#ffffff" d="M75.258 46.405c-0.002-0.644-0.525-1.164-1.169-1.164-0.002 0-0.004 0-0.005 0-0.19 0-19.126 1.306-20.974 20.874-0.062 0.642 0.412 1.213 1.055 1.273 0.036 0.003 0.074 0.007 0.111 0.007 0.597 0 1.106-0.455 1.162-1.061 1.656-17.533 18.534-18.746 18.654-18.754C74.741 47.578 75.261 47.052 75.258 46.405z" data-fill-palette-color="accent"></path></g></svg></g></svg></g></svg></g><defs></defs></svg><rect width="395.52" height="144.91676527914447" fill="none" stroke="none" visibility="hidden"></rect></g></svg></g></svg>